<svg width="21" height="20" viewBox="0 0 21 20" fill="none" xmlns="http://www.w3.org/2000/svg">
<path d="M15.425 11C16.175 11 16.835 10.59 17.175 9.97L20.755 3.48C21.125 2.82 20.645 2 19.885 2H5.085L4.145 0H0.875V2H2.875L6.475 9.59L5.125 12.03C4.395 13.37 5.355 15 6.875 15H18.875V13H6.875L7.975 11H15.425ZM6.035 4H18.185L15.425 9H8.405L6.035 4ZM6.875 16C5.775 16 4.885 16.9 4.885 18C4.885 19.1 5.775 20 6.875 20C7.975 20 8.875 19.1 8.875 18C8.875 16.9 7.975 16 6.875 16ZM16.875 16C15.775 16 14.885 16.9 14.885 18C14.885 19.1 15.775 20 16.875 20C17.975 20 18.875 19.1 18.875 18C18.875 16.9 17.975 16 16.875 16Z" fill="white"/>
</svg>
